<svg width="64" height="54" viewBox="0 0 64 54" fill="none" xmlns="http://www.w3.org/2000/svg">
<path fill-rule="evenodd" clip-rule="evenodd" d="M59.3137 26.5542C56.681 23.9215 53.2125 22.2893 49.5057 21.939C45.799 21.5886 42.0861 22.5419 39.0067 24.6347C35.9272 26.7274 33.6741 29.8287 32.6353 33.4041C32.2678 34.6692 32.0604 35.9656 32.0114 37.2642H31.9886C31.9396 35.9656 31.7323 34.6692 31.3647 33.4042C30.326 29.8287 28.0728 26.7275 24.9933 24.6347C21.9139 22.5419 18.201 21.5886 14.4943 21.939C10.7875 22.2894 7.31905 23.9216 4.68631 26.5543L8.30669 30.1747C10.097 28.3844 12.4555 27.2746 14.9761 27.0363C17.4967 26.798 20.0215 27.4463 22.1155 28.8694C24.2095 30.2925 25.7417 32.4013 26.448 34.8326C26.6797 35.6301 26.8178 36.4459 26.8633 37.2642H0L0.0144973 37.3657L0.00791147 37.3654C-0.109039 41.0869 1.07552 44.7326 3.35754 47.6745C5.63955 50.6165 8.87613 52.6705 12.5097 53.4827C16.1433 54.2949 19.9464 53.8144 23.2639 52.1241C26.5813 50.4338 29.2054 47.6394 30.6841 44.2224C31.0474 43.3828 31.336 42.5185 31.5492 41.6393L32.4519 41.6437C32.665 42.5213 32.9532 43.3841 33.3159 44.2223C34.7946 47.6394 37.4187 50.4337 40.7362 52.124C44.0536 53.8144 47.8567 54.2948 51.4903 53.4826C55.1239 52.6704 58.3605 50.6164 60.6425 47.6745C62.9245 44.7325 64.1091 41.0868 63.9921 37.3654L63.9865 37.3655L64 37.2642H37.1368C37.1822 36.4459 37.3203 35.63 37.552 34.8325C38.2584 32.4012 39.7905 30.2924 41.8845 28.8693C43.9785 27.4462 46.5033 26.798 49.0239 27.0362C51.5445 27.2745 53.9031 28.3844 55.6933 30.1746L59.3137 26.5542ZM37.8057 41.6694C37.8708 41.844 37.9405 42.0172 38.0148 42.1889C39.0203 44.5125 40.8047 46.4127 43.0606 47.5621C45.3165 48.7115 47.9026 49.0382 50.3734 48.4859C52.8442 47.9336 55.0451 46.5369 56.5969 44.5364C57.2546 43.6885 57.7782 42.7546 58.1572 41.7673L37.8057 41.6694ZM26.2149 41.6137L5.74957 41.5153C6.13403 42.5958 6.68971 43.6167 7.40313 44.5364C8.9549 46.537 11.1558 47.9337 13.6266 48.486C16.0975 49.0383 18.6836 48.7116 20.9394 47.5622C23.1953 46.4127 24.9797 44.5126 25.9852 42.189C26.0674 41.999 26.144 41.8072 26.2149 41.6137Z" fill="#F3F7FB"/>
<path d="M44.9818 15.2263H19.0195V19.7546C26.0009 22.1017 28.8394 24.4145 32.0007 30.3207C34.5739 24.4728 37.4767 22.2004 44.9818 19.7546V15.2263Z" fill="#E3DFDC"/>
<path d="M8.45312 11.0001L32.0003 1.6416L55.5475 11.0001L32.0003 20.3586L8.45312 11.0001Z" fill="#F3F7FB" stroke="#F3F7FB" stroke-width="0.301887" stroke-linejoin="round"/>
<path fill-rule="evenodd" clip-rule="evenodd" d="M10.962 11.9055H11.4567V15.7801C11.6046 15.8655 11.7042 16.0255 11.7042 16.2086C11.7042 16.3988 11.5969 16.5639 11.4395 16.6467C11.681 16.7393 11.8524 16.9733 11.8524 17.2473V19.572H10.5664V17.2473C10.5664 16.9732 10.7379 16.7391 10.9795 16.6466C10.8222 16.5638 10.715 16.3988 10.715 16.2086C10.715 16.0257 10.8143 15.8659 10.962 15.7804V11.9055Z" fill="#F3F7FB"/>
</svg>
